<?xml version="1.0" encoding="UTF-8" standalone="no"?>
<svg width="32" height="32" viewBox="0 0 201 200" version="1.1" xmlns="http://www.w3.org/2000/svg" xmlns:xlink="http://www.w3.org/1999/xlink" xml:space="preserve" xmlns:serif="http://www.serif.com/" style="fill-rule:evenodd;clip-rule:evenodd;stroke-linejoin:round;stroke-miterlimit:2;">
    <g transform="matrix(1,0,0,1,0.500288,-0.192904)">
        <g transform="matrix(1,1.44257e-05,-1.43757e-05,0.996534,0.00143039,0.690024)">
            <path d="M79.5,-0.5L119.5,-0.5C161.833,10.5 188.5,37.167 199.5,79.5L199.5,119.5C188.556,161.778 161.889,188.444 119.5,199.5L79.5,199.5C37.111,188.444 10.444,161.778 -0.5,119.5L-0.5,79.5C10.5,37.167 37.167,10.5 79.5,-0.5Z" style="fill:rgb(14,54,83);fill-opacity:0.87;"/>
        </g>
        <g>
            <path d="M185.5,75.5C185.41,78.152 186.076,80.486 187.5,82.5C192.588,120.479 179.921,150.979 149.5,174C128.853,186.912 106.52,191.412 82.5,187.5C80.486,186.076 78.152,185.41 75.5,185.5C39.85,174.341 18.35,150.341 11,113.5C10.193,103.09 10.359,92.757 11.5,82.5C12.924,80.486 13.591,78.152 13.5,75.5C24.477,40.693 47.81,19.193 83.5,11C127.385,6.356 159.885,23.189 181,61.5C183.013,66.037 184.513,70.704 185.5,75.5Z" style="fill:rgb(240,81,88);"/>
        </g>
        <g>
            <path d="M90.5,15.5C93.314,14.835 96.314,14.502 99.5,14.5C105.068,14.429 110.401,15.096 115.5,16.5C107.184,15.815 98.851,15.482 90.5,15.5Z" style="fill:rgb(199,77,87);"/>
        </g>
        <g>
            <path d="M90.5,15.5C98.851,15.482 107.184,15.815 115.5,16.5C143.585,23.147 164.085,39.481 177,65.5C180.01,73.754 182.176,82.087 183.5,90.5C183.77,99.582 183.103,108.582 181.5,117.5C172.487,151.179 151.154,172.513 117.5,181.5C108.582,183.103 99.582,183.77 90.5,183.5C63.004,179.872 41.838,166.205 27,142.5C22.387,133.811 18.887,124.811 16.5,115.5C15.815,107.184 15.482,98.851 15.5,90.5C22.833,47.833 47.833,22.833 90.5,15.5Z" style="fill:rgb(8,54,83);"/>
        </g>
        <g>
            <path d="M80.5,171.5C80.196,139.809 80.53,108.142 81.5,76.5C84.016,71.311 88.016,67.978 93.5,66.5L93.5,25.5L107.5,25.5C107.333,39.171 107.5,52.837 108,66.5C115.307,68.474 119.974,73.14 122,80.5C122.667,111.167 122.667,141.833 122,172.5C108.575,173.656 95.075,173.822 81.5,173C80.944,172.617 80.611,172.117 80.5,171.5Z" style="fill:rgb(251,82,88);"/>
        </g>
        <g>
            <path d="M13.5,75.5C13.591,78.152 12.924,80.486 11.5,82.5C11.41,79.848 12.076,77.515 13.5,75.5Z" style="fill:rgb(167,73,87);"/>
        </g>
        <g>
            <path d="M185.5,75.5C186.924,77.515 187.59,79.848 187.5,82.5C186.076,80.486 185.41,78.152 185.5,75.5Z" style="fill:rgb(167,73,87);"/>
        </g>
        <g>
            <path d="M15.5,90.5C15.482,98.851 15.815,107.184 16.5,115.5C15.096,110.401 14.429,105.068 14.5,99.5C14.502,96.314 14.835,93.314 15.5,90.5Z" style="fill:rgb(199,77,87);"/>
        </g>
        <g>
            <path d="M183.5,90.5C184.653,96.319 184.819,102.319 184,108.5C183.943,111.851 183.109,114.851 181.5,117.5C183.103,108.582 183.77,99.582 183.5,90.5Z" style="fill:rgb(191,76,87);"/>
        </g>
        <g transform="matrix(1.41754,0,0,1.02902,-33.1864,-4.17035)">
            <path d="M81.5,76.5C80.53,108.142 80.196,139.809 80.5,171.5C79.336,141.003 79.169,110.336 80,79.5C80.232,78.263 80.732,77.263 81.5,76.5Z" style="fill:rgb(150,71,86);"/>
        </g>
        <g>
            <path d="M117.5,181.5C114.851,183.109 111.851,183.943 108.5,184C102.319,184.819 96.319,184.653 90.5,183.5C99.582,183.77 108.582,183.103 117.5,181.5Z" style="fill:rgb(198,76,87);"/>
        </g>
        <g>
            <path d="M75.5,185.5C78.152,185.41 80.486,186.076 82.5,187.5C79.848,187.59 77.515,186.924 75.5,185.5Z" style="fill:rgb(167,73,87);"/>
        </g>
    </g>
</svg> 